<?xml version="1.0" standalone="no"?>
<!DOCTYPE svg PUBLIC "-//W3C//DTD SVG 20010904//EN"
 "http://www.w3.org/TR/2001/REC-SVG-20010904/DTD/svg10.dtd">
<svg version="1.0" xmlns="http://www.w3.org/2000/svg"
 width="800.000000pt" height="800.000000pt" viewBox="0 0 800.000000 800.000000"
 preserveAspectRatio="xMidYMid meet">
<metadata>
Created by potrace 1.14, written by Peter Selinger 2001-2017
</metadata>
<g transform="translate(0.000000,800.000000) scale(0.100000,-0.100000)"
fill="#000000" stroke="none">
<path d="M3509 5864 c-7 -8 -21 -13 -30 -11 -10 3 -20 -1 -23 -9 -3 -8 -1 -14
4 -14 6 0 10 -5 10 -11 0 -8 -5 -7 -15 1 -9 7 -14 18 -12 25 9 21 -31 14 -42
-8 -10 -20 -11 -19 -6 8 l5 30 -14 -25 c-8 -14 -17 -24 -20 -22 -15 6 -17 1
-6 -13 7 -8 17 -12 23 -8 6 3 7 1 3 -5 -9 -15 -29 -6 -45 21 -8 12 -10 19 -6
15 4 -4 14 -1 21 7 19 18 18 31 -1 15 -8 -6 -20 -8 -26 -4 -8 5 -9 3 -4 -6 5
-9 2 -10 -14 -5 -13 4 -21 2 -21 -5 0 -6 -4 -9 -9 -6 -5 3 -12 -1 -15 -10 -5
-13 -9 -14 -21 -4 -10 9 -15 9 -15 1 0 -6 5 -11 11 -11 5 0 7 -5 4 -10 -5 -8
-12 -7 -23 2 -15 11 -15 11 -4 -4 11 -13 11 -20 1 -36 -10 -16 -10 -23 0 -35
8 -11 9 -17 1 -22 -6 -4 -10 -3 -9 2 3 20 -2 25 -16 13 -8 -7 -13 -16 -10 -19
2 -4 -2 -8 -10 -8 -11 0 -12 4 -4 14 9 9 8 13 0 13 -6 0 -14 -7 -17 -15 -4 -8
-11 -15 -17 -15 -7 0 -7 4 1 12 16 16 15 25 -2 31 -10 4 -13 1 -10 -7 3 -7 -3
-19 -12 -27 -12 -9 -15 -10 -10 -1 4 7 2 12 -5 12 -9 0 -9 3 0 14 8 10 9 16 1
21 -6 4 -9 1 -8 -6 3 -15 -18 -18 -49 -8 -17 6 -21 5 -17 -5 3 -8 16 -13 29
-11 14 1 22 -1 20 -6 -3 -4 -23 -6 -45 -5 -31 2 -37 0 -29 -10 7 -8 6 -14 -2
-20 -7 -4 -9 -3 -5 4 9 15 -15 21 -38 9 -18 -9 -18 -10 5 -28 l24 -19 -27 9
c-22 8 -26 7 -21 -4 3 -8 8 -13 12 -10 4 2 8 -2 8 -10 0 -8 -4 -15 -9 -15 -5
0 -6 -4 -3 -10 3 -5 1 -10 -5 -10 -7 0 -10 6 -7 13 3 8 1 20 -4 28 -8 11 -9 9
-7 -6 2 -13 -2 -19 -12 -17 -11 3 -9 -3 5 -20 11 -12 13 -17 4 -10 -9 6 -19 9
-22 5 -4 -3 -7 2 -7 11 0 20 -22 17 -28 -5 -3 -11 -2 -11 6 -1 7 11 11 10 16
-4 8 -21 -1 -31 -15 -17 -6 6 -18 9 -25 6 -8 -3 -14 0 -14 7 0 6 5 8 12 4 7
-4 8 -3 4 4 -4 6 -13 9 -21 5 -8 -3 -15 1 -15 8 0 7 -3 10 -6 7 -3 -4 -1 -15
5 -25 8 -15 7 -20 -4 -20 -8 0 -12 4 -9 8 2 4 0 10 -6 14 -5 3 -10 1 -10 -4 0
-6 -8 -11 -17 -11 -14 0 -15 -2 -4 -9 11 -7 9 -10 -8 -16 -12 -3 -19 -10 -16
-15 3 -5 -4 -14 -15 -20 -18 -10 -19 -14 -8 -28 12 -15 11 -16 -4 -3 -17 12
-23 9 -19 -12 1 -5 -4 -5 -10 -1 -8 4 -9 -1 -4 -17 5 -18 4 -21 -4 -9 -6 8 -8
24 -5 35 3 12 2 15 -3 9 -4 -6 -18 -14 -30 -18 -23 -7 -33 -36 -13 -36 6 0 10
-5 10 -10 0 -6 -8 -5 -19 2 -11 7 -18 15 -15 19 2 4 -1 11 -7 15 -7 4 -9 3 -5
-4 3 -6 -4 -18 -16 -28 -13 -9 -16 -14 -6 -11 10 4 18 -1 21 -14 3 -10 2 -17
-2 -15 -4 3 -13 1 -21 -5 -10 -6 -11 -9 -2 -9 6 0 12 -5 12 -11 0 -5 -4 -8 -9
-5 -5 3 -11 -1 -15 -9 -3 -8 -15 -15 -26 -15 -19 0 -24 -9 -21 -40 2 -13 1
-13 -9 0 -9 11 -13 12 -17 2 -2 -6 -9 -9 -14 -6 -6 3 -17 0 -25 -7 -14 -12
-14 -14 2 -26 14 -10 15 -15 4 -28 -12 -14 -15 -14 -34 2 -12 10 -18 14 -13 9
4 -5 0 -18 -9 -28 -13 -14 -20 -15 -31 -7 -11 9 -12 8 -7 -5 7 -19 16 -20 32
-4 8 8 12 8 12 1 0 -6 -13 -16 -29 -21 -23 -8 -29 -8 -25 2 3 7 -1 18 -9 24
-11 9 -14 8 -14 -3 0 -8 5 -11 10 -8 5 3 7 0 5 -8 -3 -8 2 -23 11 -33 9 -11
11 -16 4 -12 -12 7 -37 -27 -27 -37 9 -8 -19 -3 -35 7 -11 7 -10 3 2 -14 13
-18 14 -28 5 -44 -6 -12 -10 -22 -9 -24 2 -2 -1 -7 -5 -10 -4 -4 -4 -1 0 6 4
6 2 12 -3 12 -6 0 -11 5 -11 11 0 5 5 7 12 3 6 -4 8 -3 4 4 -3 5 -2 12 3 14 5
1 2 10 -7 18 -14 13 -15 12 -9 -3 3 -9 2 -19 -3 -22 -4 -3 -10 1 -13 7 -2 7
-8 9 -13 5 -5 -4 -2 -12 5 -17 11 -6 10 -14 -8 -39 -12 -17 -28 -31 -34 -30
-8 0 -8 2 1 6 6 2 9 10 6 15 -5 7 -2 8 7 3 8 -5 11 -5 7 0 -4 4 0 14 10 22 16
12 16 13 -2 6 -12 -4 -17 -3 -13 4 3 5 0 10 -8 10 -10 0 -11 -4 -6 -11 6 -7 4
-18 -4 -30 -17 -23 -9 -47 13 -39 13 4 12 2 -3 -11 l-20 -18 20 6 c19 6 19 5
1 -8 -18 -15 -13 -42 6 -30 7 4 8 2 4 -5 -11 -17 -39 8 -31 28 3 8 3 12 -1 8
-4 -4 -14 -1 -22 6 -9 6 -4 -7 11 -29 25 -40 26 -54 3 -54 -6 0 -5 4 2 9 10 6
10 10 -2 20 -18 15 -33 -4 -17 -23 9 -10 8 -15 -5 -20 -13 -5 -14 -9 -4 -21 8
-10 9 -15 2 -15 -6 0 -9 -9 -7 -20 2 -11 0 -20 -6 -20 -5 0 -7 11 -5 25 3 14
1 23 -4 20 -4 -3 -11 1 -13 7 -3 7 -4 -2 -2 -19 2 -18 -1 -33 -6 -33 -6 0 -8
-4 -5 -9 3 -5 -1 -12 -10 -15 -14 -5 -14 -9 -3 -23 10 -12 10 -15 1 -9 -7 4
-15 1 -18 -8 -9 -23 -19 -20 -21 6 -2 16 0 19 6 9 5 -7 11 -9 13 -5 3 5 -3 18
-14 29 -16 17 -18 17 -12 2 4 -12 2 -16 -7 -14 -8 2 -11 2 -6 0 4 -3 5 -9 1
-14 -3 -5 -1 -9 3 -9 5 0 9 -9 10 -21 2 -16 -2 -19 -15 -14 -13 5 -14 4 -5 -6
10 -10 15 -9 27 0 9 7 21 11 28 8 8 -3 5 -6 -6 -6 -11 -1 -16 -4 -13 -8 4 -3
2 -12 -4 -19 -6 -8 -9 -20 -6 -27 3 -8 1 -20 -5 -28 -8 -11 -9 -10 -4 4 3 10
2 16 -3 12 -5 -3 -11 -2 -14 2 -2 5 -2 1 1 -7 3 -8 4 -23 4 -32 0 -10 4 -18 9
-18 6 0 8 4 5 9 -9 14 23 6 37 -9 10 -12 9 -12 -3 -3 -19 13 -66 -14 -65 -37
1 -8 -2 -22 -6 -31 -5 -9 -5 -19 -2 -23 10 -9 11 -45 2 -43 -4 1 -14 -7 -23
-18 -14 -19 -14 -19 -13 -1 1 10 -5 20 -14 21 -20 3 -19 -16 1 -41 8 -10 10
-15 4 -11 -7 4 -17 0 -23 -7 -10 -11 -8 -17 6 -26 17 -11 17 -11 -1 -6 -15 5
-18 2 -14 -19 3 -14 1 -28 -5 -32 -5 -3 -7 -2 -4 4 4 6 -1 19 -9 29 -9 10 -13
13 -9 6 11 -22 16 -64 7 -58 -5 3 -8 -13 -6 -36 2 -22 -1 -49 -6 -59 -9 -15
-6 -17 20 -14 18 3 28 0 25 -5 -4 -6 -14 -10 -23 -10 -13 0 -17 -9 -17 -39 -1
-22 3 -38 7 -35 3 2 5 13 3 24 -2 11 0 20 4 20 11 0 11 -49 0 -56 -15 -9 -10
-24 7 -24 8 0 13 4 9 9 -3 5 -1 12 4 15 5 4 8 -2 6 -11 -2 -13 -11 -18 -31
-16 -16 0 -23 -1 -16 -4 10 -4 10 -8 2 -19 -16 -18 -4 -34 20 -29 11 2 20 0
20 -6 0 -5 -9 -9 -19 -9 -11 0 -23 -5 -27 -12 -4 -7 -3 -8 4 -4 15 9 16 -6 2
-20 -7 -7 -6 -11 4 -11 8 0 13 4 10 9 -3 4 0 8 6 8 7 0 10 -7 7 -15 -4 -8 -2
-17 4 -21 6 -3 6 -10 1 -17 -5 -7 -8 -22 -6 -34 2 -13 0 -23 -5 -23 -4 0 -7
18 -6 40 1 22 -1 40 -5 40 -4 0 -7 -25 -5 -55 1 -34 -2 -55 -9 -55 -6 0 -5 -4
3 -9 9 -6 10 -11 2 -15 -6 -4 -11 -12 -11 -19 0 -6 6 -3 13 6 8 12 16 14 27 7
13 -9 13 -10 0 -10 -8 0 -20 -11 -27 -25 -6 -14 -7 -23 -2 -19 12 7 11 -10 -1
-22 -7 -7 -6 -11 4 -11 8 0 13 4 10 9 -3 4 0 8 6 8 7 0 10 -6 7 -14 -3 -7 -1
-18 4 -23 6 -6 3 -15 -8 -24 -16 -12 -17 -12 -6 2 7 9 10 19 6 22 -13 14 -20
6 -17 -20 1 -15 -3 -34 -9 -42 -9 -12 -9 -13 1 -7 15 9 16 -6 2 -20 -7 -7 -6
-11 4 -11 8 0 13 4 10 9 -3 4 0 8 5 8 16 0 13 -20 -3 -26 -8 -3 -17 -12 -20
-20 -3 -8 -2 -12 3 -9 5 3 12 1 16 -5 3 -5 2 -10 -3 -10 -10 0 -8 -42 2 -59 4
-6 13 -8 21 -4 23 8 18 -5 -6 -18 -15 -7 -19 -8 -15 0 5 7 1 8 -9 4 -12 -4
-13 -8 -5 -13 9 -6 9 -9 -1 -13 -8 -4 0 -4 16 -1 28 5 29 4 9 -8 -12 -7 -19
-19 -16 -27 3 -9 0 -11 -8 -6 -10 6 -11 4 -4 -6 12 -19 12 -32 -1 -42 -6 -4
-2 -7 9 -5 10 2 21 -3 23 -10 3 -7 1 -12 -4 -11 -31 5 -36 -3 -14 -21 13 -11
18 -20 12 -20 -6 0 -3 -8 6 -18 12 -12 21 -15 26 -8 5 7 6 3 3 -8 -4 -10 -1
-25 5 -33 7 -7 9 -16 6 -19 -3 -3 -13 8 -21 24 -19 36 -35 49 -31 25 1 -10 -2
-25 -8 -33 -9 -12 -9 -13 3 -2 14 12 39 18 27 5 -4 -3 2 -13 13 -20 15 -10 19
-21 15 -36 -6 -21 -5 -21 6 -3 7 11 12 28 13 39 1 21 26 37 26 17 0 -6 -4 -8
-10 -5 -18 11 -10 -3 20 -36 16 -18 27 -36 24 -40 -2 -4 0 -10 4 -13 10 -6 8
-54 -2 -64 -4 -3 5 -18 20 -33 19 -19 22 -29 13 -34 -7 -5 -10 -4 -6 2 4 6 -1
17 -10 24 -15 12 -16 11 -11 -9 4 -16 1 -25 -13 -32 -10 -6 -19 -16 -19 -23 0
-8 3 -9 8 -1 9 13 45 27 37 15 -3 -5 -1 -12 4 -16 6 -3 7 -13 4 -22 -4 -11 -3
-14 5 -9 18 11 14 -3 -5 -22 -15 -15 -16 -15 -11 -1 5 13 2 16 -13 12 -18 -5
-18 -6 -2 -18 9 -7 24 -10 33 -7 12 4 13 2 3 -9 -7 -7 -13 -17 -13 -23 0 -5 6
-1 14 10 12 15 17 17 27 7 11 -11 10 -15 0 -25 -11 -11 -13 -10 -8 5 8 22 5
22 -16 -4 -17 -19 -17 -20 0 -17 11 2 17 -2 15 -11 -2 -11 0 -12 10 -4 17 14
35 -5 33 -34 -1 -14 3 -19 12 -16 10 4 11 9 2 19 -6 8 -8 14 -4 14 4 0 2 6 -4
14 -9 10 -8 16 3 26 13 10 15 8 11 -9 -2 -11 0 -23 5 -26 5 -3 7 -17 4 -31 -3
-17 -1 -23 7 -19 8 6 8 2 0 -13 -6 -11 -14 -22 -18 -24 -9 -5 10 -1 35 8 9 4
1 -6 -18 -21 -19 -15 -27 -25 -18 -22 19 7 63 -44 50 -58 -4 -4 3 -3 15 4 17
9 25 8 37 -4 17 -17 30 -20 21 -5 -3 5 -1 10 5 10 6 0 8 6 4 13 -4 7 -3 8 2 4
5 -5 9 -16 9 -25 0 -9 6 -16 13 -14 9 2 11 -2 5 -10 -4 -7 -8 -16 -8 -20 0 -3
-3 -10 -7 -14 -4 -3 -6 2 -4 13 3 13 -2 19 -16 19 -15 0 -16 -3 -6 -11 18 -14
21 -35 5 -35 -8 0 -7 -3 3 -10 18 -11 20 -31 5 -43 -6 -5 -3 -7 8 -3 21 7 23
-12 2 -20 -19 -8 -19 -21 0 -21 8 0 12 4 10 8 -3 3 2 12 10 19 11 10 18 9 31
-5 9 -9 24 -13 32 -10 9 3 -2 -11 -23 -31 -32 -30 -35 -35 -16 -29 18 5 22 4
16 -5 -5 -8 -4 -11 3 -6 6 4 9 13 6 20 -3 8 -1 17 5 21 7 3 8 0 5 -10 -5 -11
-2 -14 10 -9 9 3 16 1 16 -6 0 -6 6 -8 13 -4 9 6 9 4 0 -7 -17 -18 -16 -29 3
-29 8 0 13 4 10 8 -3 5 1 9 9 9 8 0 11 -5 8 -11 -12 -18 -5 -88 8 -97 17 -10
30 -2 23 15 -3 7 2 18 10 25 12 10 14 8 12 -12 -2 -13 -7 -30 -11 -37 -5 -8
-4 -11 3 -6 5 3 12 1 14 -6 3 -8 12 -4 25 9 12 12 24 19 27 16 3 -4 -3 -12
-14 -20 -11 -8 -20 -19 -20 -25 0 -6 10 -3 21 8 22 19 22 19 10 -3 -17 -33
-13 -38 10 -12 11 13 18 18 14 12 -3 -7 -1 -13 5 -13 6 0 8 -5 4 -11 -4 -8 1
-9 17 -4 23 7 23 7 4 -8 -18 -14 -21 -14 -30 3 -9 18 -11 17 -22 -6 -10 -21
-10 -24 2 -14 15 12 27 0 32 -34 4 -26 13 -34 13 -12 0 16 2 16 26 -3 14 -11
31 -18 39 -15 7 3 16 1 19 -5 7 -10 60 3 84 22 8 6 12 6 12 -2 0 -6 -5 -11
-11 -11 -6 0 -2 -8 8 -17 27 -25 47 -73 30 -73 -6 0 -4 -5 6 -11 9 -6 14 -16
11 -22 -5 -8 -3 -8 7 1 18 17 34 15 19 -3 -17 -21 -1 -19 23 2 11 10 18 13 15
8 -9 -16 14 -40 42 -44 14 -1 28 -8 32 -15 5 -7 8 -7 8 -1 0 17 -21 34 -35 29
-16 -7 -40 22 -25 31 6 4 9 1 8 -7 -2 -7 4 -13 12 -13 9 0 30 -10 47 -23 33
-24 55 -30 35 -10 -7 7 -12 17 -12 23 0 5 5 2 11 -8 6 -10 16 -14 22 -10 7 3
5 -2 -4 -13 -9 -10 -14 -26 -11 -34 5 -13 3 -13 -14 0 -17 14 -18 13 -7 -1 7
-9 10 -19 6 -22 -3 -4 -2 -7 3 -7 5 0 15 9 22 20 10 16 10 20 0 20 -7 0 -5 5
5 11 14 8 22 8 30 0 7 -7 6 -12 -6 -16 -9 -4 -13 -13 -10 -22 5 -12 3 -14 -8
-8 -8 5 -11 4 -6 0 14 -16 36 -14 31 3 -3 10 4 1 15 -18 13 -23 20 -28 18 -15
-1 11 -6 26 -11 33 -4 7 -5 16 -2 19 3 4 6 1 6 -6 0 -7 5 -9 12 -5 7 4 8 3 4
-4 -7 -11 6 -17 27 -13 5 1 6 -3 2 -9 -3 -5 1 -10 9 -10 25 0 26 -15 0 -16
-15 -1 -24 4 -24 12 0 8 -4 14 -10 14 -15 0 1 -30 22 -41 15 -8 19 -8 13 0 -4
8 3 10 24 6 19 -3 31 -1 31 5 0 6 -4 9 -8 6 -4 -2 -13 4 -19 14 -11 17 -10 17
18 3 16 -8 27 -18 24 -23 -3 -5 -1 -11 4 -15 6 -3 8 3 6 15 -2 11 0 20 6 20 5
0 9 -4 9 -10 0 -5 5 -10 11 -10 5 0 7 5 3 12 -7 12 8 5 35 -16 7 -6 24 -11 37
-12 14 0 31 -10 39 -20 14 -18 14 -17 4 7 -7 17 -18 26 -32 25 -11 0 -22 6
-24 14 -3 9 -1 11 4 5 4 -5 18 -11 31 -11 18 -1 22 3 17 20 -5 20 -5 20 4 1 5
-11 12 -28 15 -37 4 -14 11 -16 28 -10 17 6 28 3 44 -14 20 -20 20 -22 2 -33
-10 -6 -18 -7 -18 -2 0 5 5 11 12 13 8 3 8 7 2 11 -6 3 -19 -8 -29 -26 -16
-28 -16 -30 -2 -18 9 7 17 10 17 7 0 -4 10 -1 23 5 19 11 20 10 10 -2 -10 -12
-8 -15 6 -16 14 -1 18 4 15 20 -4 20 -4 20 6 -2 8 -19 13 -21 25 -11 8 7 15 9
15 4 0 -5 65 -10 145 -11 107 -1 143 2 138 10 -5 9 -3 9 8 0 17 -13 631 -12
663 2 12 5 17 5 13 -2 -3 -5 0 -10 8 -10 10 0 12 4 5 12 -14 17 0 27 19 12 14
-11 14 -10 2 6 -7 9 -11 18 -7 18 3 1 12 2 19 3 6 1 11 7 10 14 -4 18 12 14
32 -8 10 -11 21 -17 26 -15 4 3 11 0 15 -6 4 -8 3 -9 -4 -5 -7 4 -12 2 -12 -5
0 -7 8 -9 21 -6 17 5 18 3 7 -11 -11 -13 -10 -15 9 -10 17 5 20 2 15 -11 -5
-14 -3 -14 11 -2 17 13 52 8 44 -6 -2 -5 4 -16 15 -26 10 -9 18 -13 18 -7 0 5
12 10 26 10 14 0 23 -4 19 -10 -3 -5 -1 -10 4 -10 6 0 11 5 11 10 0 6 5 10 11
10 5 0 7 -4 4 -10 -3 -5 1 -10 9 -10 8 0 18 5 21 11 5 7 14 4 26 -7 19 -17 20
-17 14 2 -3 10 2 4 10 -14 13 -28 18 -32 30 -22 8 7 12 17 8 23 -3 6 -1 7 5 3
6 -4 8 -14 5 -24 -6 -15 -5 -15 12 2 18 18 19 18 26 0 4 -11 8 -15 8 -11 1 4
11 3 22 -4 16 -8 20 -8 14 0 -4 8 2 10 19 7 15 -3 24 -1 21 5 -4 5 -11 6 -17
3 -6 -4 -8 -3 -5 3 3 5 20 8 36 7 20 -1 29 2 24 9 -4 6 0 8 10 4 10 -4 17 -2
17 4 0 7 12 4 28 -6 l27 -18 -25 29 c-14 16 -18 23 -10 17 17 -13 37 -12 60 2
12 7 13 6 3 -7 -7 -8 -9 -19 -5 -24 4 -4 -1 -2 -11 5 -15 12 -17 12 -11 -2 7
-20 46 -17 52 4 3 11 1 11 -8 -1 -10 -13 -11 -13 -7 0 2 8 9 15 16 15 7 0 18
8 26 18 11 15 13 15 18 2 6 -14 37 -11 35 3 -2 20 3 25 12 12 8 -13 10 -13 10
2 0 9 5 20 12 24 8 5 9 2 5 -9 -5 -14 -3 -15 13 -5 10 7 16 16 13 22 -4 5 1 7
12 2 15 -5 16 -4 6 8 -10 12 -9 13 8 9 14 -3 21 -1 21 8 0 11 2 11 10 -1 8
-13 10 -13 10 1 0 19 30 35 30 16 0 -8 4 -7 9 3 6 8 7 19 3 25 -3 5 3 3 13 -5
11 -9 16 -10 11 -3 -4 8 -2 13 4 13 6 0 9 4 5 9 -3 5 0 13 6 17 7 4 9 3 5 -4
-3 -6 -2 -13 4 -17 6 -3 14 4 19 17 6 13 10 17 10 11 1 -16 31 -17 31 -2 0 5
-4 7 -10 4 -6 -3 -7 1 -4 10 6 14 8 14 20 -2 13 -17 13 -17 14 0 0 9 5 17 11
17 5 0 7 -6 3 -12 -6 -10 -3 -9 8 0 10 8 14 21 11 30 -3 9 -3 14 2 10 4 -4 8
-17 9 -28 0 -11 4 -21 7 -23 3 -1 34 14 67 33 52 30 60 38 55 57 -4 17 -1 23
11 23 9 0 16 4 16 10 0 5 3 9 8 9 20 -3 32 2 26 13 -4 6 -3 8 4 4 5 -3 12 -2
14 3 1 5 10 2 18 -7 13 -14 12 -15 -3 -9 -12 5 -16 3 -11 -5 5 -7 3 -8 -6 -3
-9 6 -11 4 -5 -5 5 -9 4 -11 -3 -6 -6 4 -23 1 -36 -6 -19 -10 -23 -17 -16 -28
8 -13 10 -12 10 4 0 12 5 16 16 12 10 -4 13 -2 8 6 -5 8 -2 9 10 5 10 -4 25 1
38 13 12 11 25 17 30 14 4 -3 8 -1 8 5 0 5 16 15 35 22 19 7 35 19 35 27 0 7
4 11 9 8 4 -3 7 10 5 30 -2 30 0 33 12 23 12 -10 13 -9 8 6 -6 14 -4 16 7 10
11 -7 12 -6 2 7 -7 8 -9 18 -5 22 7 7 8 11 11 37 0 5 6 7 12 3 8 -4 7 -9 -2
-15 -10 -6 -10 -9 -2 -9 19 0 24 17 8 30 -8 7 -12 17 -8 23 3 6 1 7 -5 3 -7
-4 -12 -1 -12 8 0 9 -5 15 -11 13 -6 -1 -12 8 -14 20 -1 14 3 19 12 16 11 -4
11 -8 1 -22 -12 -14 -11 -15 5 -2 13 10 15 17 6 27 -9 11 -8 14 5 14 10 0 15
4 11 10 -3 5 -13 6 -23 3 -10 -4 -8 2 8 15 15 13 19 21 10 20 -10 -2 -14 4
-13 17 1 11 0 14 -3 8 -3 -7 -13 -13 -22 -13 -15 0 -15 2 -2 11 12 8 10 9 -9
4 -13 -4 -21 -3 -18 2 3 5 1 15 -5 23 -8 13 -9 12 -5 -2 4 -10 -1 -18 -14 -21
-17 -4 -18 -3 -8 9 11 13 4 18 -21 16 -10 -1 -9 37 1 43 5 4 6 12 2 18 -4 7 2
5 12 -3 17 -14 18 -14 5 10 -12 23 -12 24 4 11 14 -12 16 -12 10 3 -3 9 -10
16 -14 16 -4 0 -7 14 -6 31 1 16 -2 33 -7 36 -6 3 -7 1 -3 -5 5 -8 1 -10 -10
-5 -11 4 -13 8 -6 11 7 2 10 8 7 12 -3 5 0 12 6 16 8 4 9 3 5 -4 -4 -7 -2 -12
4 -12 7 0 10 6 7 13 -2 6 -11 11 -20 11 -9 -1 -14 3 -11 8 4 5 14 8 23 5 11
-3 17 2 17 14 0 13 -4 15 -12 8 -8 -7 -17 -5 -28 6 -23 23 -20 32 4 10 11 -10
20 -13 20 -7 0 7 -5 12 -11 12 -5 0 -8 4 -5 8 8 13 -27 11 -43 -2 -12 -9 -12
-8 -3 10 9 17 8 25 -3 40 -13 16 -14 17 -9 2 3 -10 1 -18 -5 -18 -6 0 -11 4
-11 9 0 5 -10 11 -22 14 -18 5 -19 9 -9 21 7 8 10 19 8 24 -3 4 -1 14 5 22 8
12 9 12 4 -3 -5 -15 -3 -16 14 -7 11 6 20 13 20 16 0 3 -3 3 -7 1 -5 -3 -17 7
-27 21 -11 14 -14 22 -8 18 7 -4 12 -2 12 4 0 7 6 10 13 7 10 -4 13 2 9 19 -2
14 0 24 7 24 7 0 10 -4 7 -8 -2 -4 0 -14 6 -22 8 -12 9 -12 4 3 -3 10 0 17 8
17 19 0 27 25 13 39 -8 8 -7 14 2 24 8 7 11 7 8 1 -4 -7 1 -18 10 -25 15 -12
16 -12 8 1 -5 8 -8 23 -6 33 2 16 -1 17 -21 7 -22 -11 -22 -10 -4 4 23 18 36
20 36 6 0 -5 5 -10 11 -10 8 0 9 4 0 13 -6 8 -7 17 -3 22 4 4 -3 3 -15 -4 -34
-17 -38 -13 -9 10 14 11 24 24 21 29 -3 5 1 11 7 13 10 4 9 6 -1 6 -10 1 -11
4 -2 14 8 10 7 14 -3 14 -8 0 -13 -8 -11 -19 2 -10 -2 -18 -8 -18 -8 0 -8 -3
2 -9 9 -6 10 -11 2 -15 -10 -7 -16 7 -11 29 5 24 9 41 9 47 1 4 9 5 19 2 13
-5 14 -4 3 4 -9 7 -10 12 -2 16 6 4 11 12 11 19 0 6 -6 3 -13 -8 -10 -12 -16
-14 -21 -7 -4 7 -2 12 3 12 19 0 12 30 -6 31 -15 0 -15 2 2 8 12 5 23 4 28 -3
6 -7 7 -6 4 4 -2 8 -11 14 -21 12 -9 -2 -16 2 -16 8 0 6 5 8 10 5 6 -3 10 -1
10 5 0 6 5 8 12 4 8 -5 9 -2 5 10 -4 10 -3 15 3 11 6 -3 10 -1 10 5 0 7 7 10
15 6 9 -3 15 0 15 10 0 8 5 12 11 9 6 -4 8 -14 5 -22 -3 -8 -1 -11 5 -8 5 4 7
16 3 28 -3 12 -3 19 1 14 5 -4 17 0 27 10 17 16 17 17 1 37 l-18 20 30 -19
c19 -12 26 -13 19 -4 -5 8 -10 21 -9 29 0 8 -4 18 -10 22 -6 5 -6 8 3 8 6 0
12 9 12 21 0 13 -4 18 -12 13 -7 -4 -8 -3 -4 4 10 17 15 15 26 -10 6 -17 9
-19 9 -6 1 10 -13 43 -29 74 l-31 56 0 409 c-1 238 -5 409 -10 409 -5 0 -9 -4
-9 -9 0 -5 -9 -11 -20 -14 -14 -4 -18 -11 -14 -24 5 -14 4 -15 -4 -3 -6 8 -9
17 -6 21 2 4 -5 10 -16 14 -11 4 -20 15 -20 26 0 11 -4 18 -9 15 -5 -4 -8 2
-6 11 1 10 -2 23 -7 30 -7 9 -1 11 24 8 l33 -5 -30 21 c-16 12 -22 18 -12 15
10 -3 16 -2 12 3 -3 5 -2 11 2 14 5 2 3 2 -4 1 -9 -2 -10 4 -3 20 12 31 8 51
-16 77 -10 12 -13 19 -6 15 8 -5 12 0 12 13 0 15 -5 19 -17 15 -14 -5 -15 -4
-4 4 8 6 23 9 33 7 10 -2 16 0 13 5 -3 4 -16 7 -28 6 -13 -2 -24 2 -24 9 0 7
10 10 22 7 13 -2 26 2 30 8 5 9 2 10 -13 6 -12 -4 -23 -2 -28 5 -4 8 -3 9 4 5
7 -4 12 -2 12 3 0 6 -7 11 -15 11 -8 0 -24 9 -35 20 -20 20 -36 27 -26 12 2
-4 -4 -8 -15 -8 -16 0 -18 2 -6 11 17 13 14 63 -7 104 -15 28 -15 32 -1 37 11
5 13 10 5 19 -5 6 -7 15 -3 19 4 4 0 4 -9 1 -9 -4 -19 -1 -23 4 -3 6 -11 9
-16 6 -5 -4 -9 -3 -10 2 0 4 -2 16 -4 26 -2 9 1 15 6 11 5 -3 9 0 9 6 0 6 5 8
11 5 6 -5 4 -12 -8 -22 -17 -14 -17 -14 0 -9 10 3 15 2 12 -3 -3 -5 0 -13 6
-17 8 -5 9 -3 4 6 -6 10 -3 12 11 7 18 -7 18 -6 1 7 -10 8 -18 17 -18 20 1 3
0 9 0 14 -1 4 -1 16 -1 27 1 16 0 16 -4 3 -6 -20 -34 -13 -34 9 0 8 5 11 13 7
6 -4 8 -3 4 1 -4 5 -14 10 -23 11 -20 3 -14 -28 8 -41 15 -9 14 -11 -8 -22
-14 -6 -26 -7 -30 -2 -3 5 -2 8 3 7 4 -2 8 2 8 7 0 6 -4 9 -8 7 -5 -1 -6 2 -3
7 4 5 2 12 -3 16 -14 8 -9 46 5 41 7 -3 14 1 17 8 3 8 -5 11 -29 10 -25 -2
-32 0 -27 11 3 8 9 12 14 9 5 -3 6 2 3 10 -3 9 -10 16 -16 16 -5 0 -7 -3 -4
-8 2 -4 -2 -16 -10 -27 -8 -10 -14 -14 -14 -9 0 6 5 15 11 21 8 8 8 13 0 17
-6 4 -11 2 -11 -4 0 -6 -5 -8 -11 -4 -8 5 -8 9 1 14 10 6 8 14 -6 34 -18 24
-42 38 -29 16 3 -5 1 -10 -4 -10 -14 0 -14 17 -1 25 6 4 8 11 5 16 -3 5 1 6 9
3 9 -3 15 -9 14 -12 0 -4 0 -14 1 -22 1 -13 2 -13 11 0 5 8 10 11 11 5 2 -26
8 -47 15 -53 4 -4 4 1 1 11 -4 12 -1 17 11 18 14 0 14 2 -3 9 -11 5 -16 9 -11
9 4 1 -2 10 -15 21 -21 17 -22 21 -9 30 9 6 10 10 3 10 -6 0 -14 -4 -18 -10
-3 -5 -12 -7 -20 -4 -8 4 -13 9 -10 14 2 4 -3 16 -11 26 -9 10 -12 13 -8 5 8
-17 14 -74 6 -66 -3 3 -7 15 -9 28 -2 12 -9 26 -15 32 -7 7 -9 7 -5 -1 4 -7
-3 -11 -19 -11 -25 0 -25 0 5 18 42 26 39 32 -6 14 -28 -11 -34 -11 -20 -1 9
7 17 19 17 25 0 7 4 10 8 7 4 -2 14 0 22 5 12 7 10 8 -7 6 -12 -2 -25 -6 -28
-9 -4 -3 -18 5 -31 19 -20 20 -23 28 -13 37 9 8 10 8 4 -3 -6 -10 -4 -12 5 -6
7 5 11 4 8 -1 -3 -5 1 -16 10 -24 14 -13 15 -12 10 2 -4 8 -1 21 5 27 9 9 8
10 -7 5 -13 -5 -17 -4 -12 4 10 17 -37 5 -50 -13 -16 -21 -19 -19 -22 16 -1
18 2 28 7 24 6 -3 7 -13 4 -23 -6 -16 -6 -16 10 0 18 18 22 29 10 27 -5 -1
-11 0 -15 1 -9 3 -24 7 -34 9 -4 0 0 9 7 18 8 10 9 14 2 10 -14 -8 -53 29 -49
47 2 6 1 8 -1 3 -3 -4 -9 -4 -14 -1 -6 4 -6 10 0 18 7 8 4 12 -12 13 -15 2
-18 0 -8 -6 7 -5 9 -11 4 -14 -11 -7 -28 4 -36 23 -4 12 -6 12 -6 -2 -1 -19
32 -41 44 -30 5 4 5 1 1 -6 -5 -8 -13 -9 -25 -2 -10 5 -22 6 -26 2 -3 -4 -6
-2 -5 3 5 21 0 32 -15 33 -8 1 -22 3 -30 4 -11 1 -12 5 -3 15 6 7 8 17 4 20
-4 4 -11 1 -16 -7 -6 -8 -10 -10 -10 -5 0 6 4 16 9 24 7 11 13 8 28 -16 17
-29 20 -30 38 -16 20 15 20 15 -2 9 -16 -5 -23 -2 -28 14 -3 11 -10 20 -14 20
-14 0 -51 41 -46 51 4 5 1 9 -4 9 -6 0 -11 -5 -11 -10 0 -6 -3 -9 -7 -9 -23 4
-43 -2 -38 -11 3 -5 1 -10 -4 -10 -6 0 -11 5 -11 12 0 6 -10 3 -22 -8 -14 -12
-18 -13 -10 -3 12 16 7 29 -10 29 -5 0 -6 -6 -2 -12 5 -10 3 -10 -7 0 -12 11
-12 14 1 23 11 7 7 8 -15 3 -27 -6 -28 -5 -12 7 16 13 16 14 -7 14 -16 0 -22
-5 -19 -15 4 -13 3 -13 -5 -1 -13 18 -4 43 12 34 8 -4 7 -2 -1 7 -6 7 -23 14
-38 15 -14 2 -32 8 -39 14 -7 6 -17 7 -21 3 -5 -4 -5 -1 -1 6 4 7 1 15 -8 18
-9 3 -16 11 -16 16 0 6 6 6 14 -1 10 -8 16 -9 21 -1 3 5 12 10 18 10 7 0 4 -7
-6 -14 -15 -12 -15 -15 -3 -26 9 -6 21 -8 27 -4 7 4 10 3 7 -2 -4 -5 5 -10 19
-11 24 -1 24 0 -6 18 -18 11 -29 23 -26 28 9 16 -15 24 -30 11 -14 -12 -20 -7
-16 14 1 5 -4 4 -12 -2 -10 -9 -17 -9 -26 1 -11 10 -12 8 -3 -8 7 -15 7 -25
-3 -39 -13 -18 -14 -18 -12 2 0 11 5 18 11 15 5 -3 6 -1 2 6 -5 8 -12 9 -20 2
-8 -7 -17 -6 -26 1 -12 8 -12 9 3 4 10 -3 16 -2 13 3 -3 5 -17 9 -32 9 -18 0
-22 -3 -13 -9 11 -7 10 -9 -3 -9 -9 0 -19 -6 -22 -12 -3 -7 -3 -3 0 10 4 15 1
22 -10 22 -10 0 -13 6 -10 18 5 14 4 14 -4 2 -8 -10 -7 -19 1 -30 6 -8 7 -12
3 -8 -5 4 -16 2 -24 -5 -13 -10 -14 -9 -7 3 13 21 14 50 2 43 -6 -4 -8 0 -5 9
4 8 2 21 -3 29 -6 9 -9 10 -9 2 0 -7 -6 -10 -14 -7 -8 3 -13 15 -11 26 4 16 2
18 -11 8 -10 -9 -11 -16 -4 -25 10 -12 4 -25 -12 -25 -11 0 -2 48 13 66 6 8 8
14 4 14 -4 0 -15 -10 -25 -22 -15 -19 -21 -21 -32 -10 -7 7 -8 12 -3 10 6 -2
11 1 13 6 4 16 -66 15 -72 -1 -7 -16 -26 -8 -26 10 0 7 4 6 10 -3 6 -9 10 -10
10 -3 0 18 -21 27 -30 13 -5 -8 -10 -9 -14 -2 -4 6 -15 9 -26 7 -11 -2 -20 -1
-20 3 0 4 -10 8 -22 9 -13 0 -17 -1 -10 -4 6 -3 10 -9 7 -14 -4 -5 2 -6 11 -2
12 4 15 3 10 -5 -11 -18 -25 -14 -53 16 -14 15 -20 19 -13 10 11 -16 9 -18 -9
-18 -14 0 -20 4 -15 12 4 7 3 8 -5 4 -6 -4 -9 -12 -6 -17 4 -5 -4 -9 -17 -9
-18 0 -20 2 -8 10 10 7 11 10 3 11 -7 1 -19 2 -25 3 -7 1 -18 -2 -25 -6 -6 -5
-14 -5 -18 2 -8 13 -25 13 -25 -1 0 -5 5 -7 12 -3 7 4 8 3 4 -5 -4 -6 -11 -9
-16 -6 -5 3 -11 -3 -13 -12 -4 -17 -5 -17 -6 0 -1 15 -12 22 -26 15 -2 -2 -11
6 -20 17 -9 13 -13 14 -10 4 6 -17 -19 -20 -43 -5 -7 4 -16 5 -19 2 -4 -3 -1
-6 6 -6 7 0 10 -4 7 -8 -3 -5 10 -8 29 -7 21 2 36 -2 39 -11 4 -11 1 -12 -14
-4 -25 13 -33 13 -24 -2 6 -10 4 -10 -8 0 -11 9 -18 10 -23 2 -3 -5 -12 -10
-18 -10 -9 0 -9 2 0 8 8 5 5 14 -10 32 -12 16 -18 18 -14 8 5 -15 1 -18 -23
-18 -17 0 -30 4 -30 8 0 11 -40 10 -57 -1 -6 -4 -14 -3 -18 3 -11 17 -23 11
-33 -17 -6 -16 -11 -21 -11 -12 -1 9 -8 20 -17 23 -8 3 -13 2 -10 -2 3 -5 -1
-9 -8 -9 -8 0 -12 6 -9 13 2 6 0 15 -6 19 -6 3 -9 0 -5 -8 5 -15 -22 -17 -45
-2 -10 5 -12 4 -7 -3 4 -7 2 -12 -3 -12 -6 0 -11 3 -11 8 0 4 -14 8 -31 8 -16
1 -28 0 -26 -2 5 -6 47 -16 69 -17 12 -1 14 -5 8 -11 -7 -7 -17 -6 -30 2 -17
10 -21 10 -26 -2 -5 -12 -8 -12 -23 2 -10 9 -16 21 -13 26 3 5 0 6 -7 2 -6 -4
-9 -11 -7 -15 3 -4 0 -13 -6 -21 -8 -12 -9 -12 -4 3 3 9 1 17 -5 17 -6 0 -8 4
-5 8 3 5 -1 9 -8 9 -8 0 -12 -10 -10 -24 1 -12 -3 -26 -9 -30 -7 -3 -9 -3 -5
2 5 5 -1 15 -13 23 -26 18 -72 24 -66 8 7 -18 -53 -15 -74 3 -10 8 -16 18 -13
23 9 14 -3 9 -17 -8z m10 -25 c-16 -10 -23 -4 -14 10 3 6 11 8 17 5 6 -4 5 -9
-3 -15z m481 -1 c11 -22 10 -22 -4 -4 -11 13 -16 15 -16 6 0 -7 -3 -11 -6 -7
-6 5 3 27 11 27 2 0 9 -10 15 -22z m79 2 c12 -6 21 -13 21 -15 0 -9 -24 0 -39
13 -11 10 -16 11 -21 1 -4 -6 -13 -8 -19 -5 -6 4 -9 11 -6 16 6 10 35 6 64
-10z m287 -1 c0 -12 -5 -15 -16 -10 -8 5 -21 6 -27 4 -7 -3 -13 0 -13 7 0 6 4
9 9 5 5 -3 12 -2 15 3 9 15 32 9 32 -9z m-940 -15 c-4 -9 -9 -15 -11 -12 -3 3
-3 13 1 22 4 9 9 15 11 12 3 -3 3 -13 -1 -22z m224 16 c0 -5 -5 -10 -11 -10
-5 0 -7 5 -4 10 3 6 8 10 11 10 2 0 4 -4 4 -10z m238 -2 c-2 -6 -10 -13 -16
-14 -7 -1 -8 0 -2 3 5 2 8 9 4 14 -3 5 0 9 6 9 7 0 10 -5 8 -12z m247 2 c-3
-5 -12 -10 -18 -10 -7 0 -6 4 3 10 19 12 23 12 15 0z m404 -7 c-6 -7 -17 -13
-23 -12 -7 0 -6 2 2 6 6 2 10 8 8 12 -3 4 1 8 9 8 11 0 12 -4 4 -14z m-1210
-32 c0 -14 -1 -14 -7 -1 -7 16 -32 25 -32 12 0 -4 5 -13 11 -19 8 -8 8 -13 0
-18 -6 -3 -11 -3 -10 2 3 18 -2 24 -13 16 -33 -20 -39 -8 -9 17 36 31 62 27
60 -9z m1141 13 c0 -2 -9 0 -20 6 -11 6 -20 13 -20 16 0 2 9 0 20 -6 11 -6 20
-13 20 -16z m183 13 c-2 -4 1 -16 9 -25 11 -15 11 -15 -3 -5 -9 7 -20 9 -25 5
-5 -4 -6 -3 -2 2 4 5 4 14 -2 20 -6 8 -3 12 10 12 10 0 16 -4 13 -9z m-979 -5
c3 -5 -1 -9 -9 -9 -8 0 -12 4 -9 9 3 4 7 8 9 8 2 0 6 -4 9 -8z m96 -2 c0 -5
-2 -10 -4 -10 -3 0 -8 5 -11 10 -3 6 -1 10 4 10 6 0 11 -4 11 -10z m655 0 c3
-6 -1 -7 -9 -4 -18 7 -21 14 -7 14 6 0 13 -4 16 -10z m192 -22 c-3 -8 -6 -5
-6 6 -1 11 2 17 5 13 3 -3 4 -12 1 -19z m-607 8 c0 -2 -7 -7 -16 -10 -8 -3
-12 -2 -9 4 6 10 25 14 25 6z m752 -45 c-4 -10 -7 -11 -10 -3 -2 7 -9 9 -14 6
-6 -4 -8 -3 -5 3 10 16 36 11 29 -6z m-1514 -12 c9 -13 9 -16 -3 -16 -8 0 -12
4 -9 9 3 4 0 8 -6 8 -6 0 -8 5 -5 11 4 6 8 9 9 7 1 -2 7 -10 14 -19z m22 11
c0 -5 -2 -10 -4 -10 -3 0 -8 5 -11 10 -3 6 -1 10 4 10 6 0 11 -4 11 -10z
m1500 -30 c0 -5 -2 -10 -4 -10 -3 0 -8 5 -11 10 -3 6 -1 10 4 10 6 0 11 -4 11
-10z m-1683 -45 c0 -8 -4 -12 -9 -9 -5 3 -6 10 -3 15 9 13 12 11 12 -6z m-107
-5 c0 -5 -8 -10 -17 -10 -15 0 -16 2 -3 10 19 12 20 12 20 0z m47 -9 c0 -11
-5 -18 -9 -15 -4 3 -5 11 -1 19 7 21 12 19 10 -4z m2023 -31 c0 -5 -8 -10 -17
-10 -15 0 -16 2 -3 10 19 12 20 12 20 0z m181 -79 c6 10 9 11 9 2 0 -7 0 -16
0 -20 0 -4 -11 -8 -24 -9 -21 -1 -23 2 -13 18 7 10 14 13 16 7 2 -8 6 -7 12 2z
m-2421 -17 c0 -8 -19 -13 -24 -6 -3 5 1 9 9 9 8 0 15 -2 15 -3z m2450 -19 c-7
-8 -17 -15 -23 -15 -6 0 -2 7 9 15 25 19 30 19 14 0z m-2606 -81 c5 -13 4 -14
-7 -6 -8 7 -18 8 -22 4 -5 -4 -5 -1 -1 6 10 17 23 15 30 -4z m2657 -1 c13 -16
12 -17 -3 -4 -10 7 -18 15 -18 17 0 8 8 3 21 -13z m-2702 -47 c-3 -3 -11 5
-18 17 -13 21 -12 21 5 5 10 -10 16 -20 13 -22z m2800 21 c8 -11 6 -18 -12
-33 l-22 -19 19 23 c11 12 14 22 8 22 -7 0 -12 5 -12 10 0 14 5 13 19 -3z m31
-47 c-8 -5 -7 -9 4 -13 9 -4 16 -12 15 -19 0 -10 -2 -10 -6 0 -2 6 -11 12 -19
12 -9 0 -12 -5 -8 -12 4 -6 3 -8 -3 -5 -7 5 -10 38 -4 54 1 1 8 0 17 -4 11 -4
12 -8 4 -13z m-2875 -50 c3 -5 1 -10 -4 -10 -6 0 -11 5 -11 10 0 6 2 10 4 10
3 0 8 -4 11 -10z m-115 -50 c0 -5 -5 -10 -11 -10 -5 0 -7 5 -4 10 3 6 8 10 11
10 2 0 4 -4 4 -10z m3085 -30 c3 -6 -1 -7 -9 -4 -18 7 -21 14 -7 14 6 0 13 -4
16 -10z m-3125 -36 c0 -8 -5 -12 -10 -9 -6 4 -8 11 -5 16 9 14 15 11 15 -7z
m3260 -118 c0 -2 -7 -7 -16 -10 -8 -3 -12 -2 -9 4 6 10 25 14 25 6z m67 -80
c0 -8 -8 -11 -21 -8 -19 5 -19 6 0 13 10 4 19 8 20 8 0 1 1 -5 1 -13z m-3487
-20 c0 -3 -4 -8 -10 -11 -5 -3 -10 -1 -10 4 0 6 5 11 10 11 6 0 10 -2 10 -4z
m3479 -14 c7 -13 6 -19 -2 -19 -7 0 -13 9 -13 19 0 10 1 18 3 18 1 0 7 -8 12
-18z m121 -133 c0 -23 -33 -16 -37 7 -1 7 6 10 17 7 11 -3 20 -9 20 -14z
m-3650 0 c12 -8 10 -9 -9 -4 -16 5 -21 4 -17 -4 5 -7 1 -8 -9 -4 -13 5 -14 7
-3 14 17 11 20 11 38 -2z m3634 -37 c3 -5 -1 -9 -9 -9 -8 0 -15 4 -15 9 0 4 4
8 9 8 6 0 12 -4 15 -8z m24 -40 c2 -7 -5 -12 -15 -11 -12 0 -14 2 -4 6 11 5
11 7 0 15 -12 8 -12 9 0 6 8 -3 17 -10 19 -16z m5 -43 c-4 -15 -8 -17 -14 -8
-6 11 4 28 18 29 0 0 -1 -9 -4 -21z m-3773 -95 c0 -8 -19 -13 -24 -6 -3 5 1 9
9 9 8 0 15 -2 15 -3z m-33 -110 c0 -7 -7 -10 -16 -6 -14 5 -14 4 -1 -13 9 -11
10 -16 3 -11 -8 4 -13 1 -13 -8 0 -9 -5 -16 -10 -16 -7 0 -6 8 1 23 7 12 12
23 11 25 -6 8 0 19 11 19 8 0 14 -6 14 -13z m3910 -25 c1 -11 -3 -19 -9 -19
-6 0 -8 3 -5 7 4 3 0 17 -8 30 -15 22 -15 23 2 12 11 -6 20 -20 20 -30z
m-3926 -46 c-12 -20 -14 -14 -5 12 4 9 9 14 11 11 3 -2 0 -13 -6 -23z m3909 1
c0 -8 -4 -14 -8 -14 -4 0 -8 9 -8 19 0 11 4 17 8 15 4 -3 8 -12 8 -20z m-3940
-68 c0 -2 -8 -10 -17 -17 -16 -13 -17 -12 -4 4 13 16 21 21 21 13z m-40 -70
c0 -3 -4 -8 -10 -11 -5 -3 -10 -1 -10 4 0 6 5 11 10 11 6 0 10 -2 10 -4z
m4015 -26 c3 -5 1 -10 -4 -10 -6 0 -11 5 -11 10 0 6 2 10 4 10 3 0 8 -4 11
-10z m60 -26 l-15 -29 2 27 c1 15 6 24 10 22 4 -3 8 0 8 7 0 7 2 10 5 7 3 -3
-1 -18 -10 -34z m-4105 -4 c-12 -7 -12 -11 1 -26 13 -16 12 -16 -8 -3 -21 12
-21 15 -6 31 9 10 19 16 22 13 3 -4 -1 -10 -9 -15z m-6 -76 c3 -8 2 -12 -4 -9
-6 3 -10 1 -10 -6 0 -7 -2 -10 -5 -7 -5 5 4 38 10 38 2 0 6 -7 9 -16z m-10
-194 c-22 -9 -29 -6 -20 9 4 6 14 7 23 4 15 -6 14 -7 -3 -13z m9 -193 c3 -8 0
-14 -7 -14 -7 0 -13 6 -13 14 0 7 4 13 8 13 4 0 9 -6 12 -13z m7 -66 c0 -5 -7
-12 -16 -15 -14 -5 -15 -4 -4 9 14 17 20 19 20 6z m-10 -141 c0 -5 -2 -10 -4
-10 -3 0 -8 5 -11 10 -3 6 -1 10 4 10 6 0 11 -4 11 -10z m5 -60 c-3 -5 -12
-10 -18 -10 -7 0 -6 4 3 10 19 12 23 12 15 0z m15 -20 c0 -5 -5 -10 -11 -10
-5 0 -7 5 -4 10 3 6 8 10 11 10 2 0 4 -4 4 -10z m-10 -54 c-7 -7 -14 -6 -22 3
-11 10 -9 11 7 5 18 -7 19 -6 5 12 -14 18 -14 18 3 5 12 -10 15 -17 7 -25z m3
-90 c4 -10 1 -13 -8 -9 -8 3 -12 9 -9 14 7 12 11 11 17 -5z m4157 0 c0 -2 -7
-7 -16 -10 -8 -3 -12 -2 -9 4 6 10 25 14 25 6z m-4160 -35 c7 -15 7 -19 -5
-17 -8 1 -18 6 -22 11 -4 4 -2 5 5 1 6 -4 12 -3 12 3 0 5 -6 12 -12 14 -10 4
-10 6 -1 6 7 1 17 -8 23 -18z m10 -88 c0 -7 -5 -13 -11 -13 -5 0 -7 5 -4 10 3
6 -1 13 -9 16 -9 3 -16 10 -16 15 0 5 9 4 20 -3 11 -7 20 -18 20 -25z m4140
33 c0 -2 -7 -7 -16 -10 -8 -3 -12 -2 -9 4 6 10 25 14 25 6z m-4100 -80 c0 -3
-4 -8 -10 -11 -5 -3 -10 -1 -10 4 0 6 5 11 10 11 6 0 10 -2 10 -4z m3943 -318
c-2 -5 -9 -8 -15 -8 -6 0 -8 3 -5 6 3 4 1 16 -5 28 l-11 21 20 -20 c11 -11 19
-23 16 -27z m-3806 -32 c-1 -6 3 -10 9 -9 6 1 10 -8 9 -20 -4 -33 -4 -34 -21
-34 -14 0 -14 2 2 14 18 14 18 15 -3 33 -27 21 -28 27 -9 27 8 0 14 -5 13 -11z
m83 -110 c0 -3 -4 -8 -10 -11 -5 -3 -10 -1 -10 4 0 6 5 11 10 11 6 0 10 -2 10
-4z m3684 -75 c-10 -10 -21 -16 -24 -14 -3 3 4 11 14 19 28 20 33 17 10 -5z
m-3676 -43 c7 -10 18 -15 24 -12 7 4 8 2 4 -4 -9 -15 -27 -6 -50 25 -12 16
-14 23 -5 18 8 -5 20 -17 27 -27z m27 4 c-3 -3 -11 0 -18 7 -9 10 -8 11 6 5
10 -3 15 -9 12 -12z m100 -91 c3 -5 2 -12 -3 -15 -5 -3 -9 1 -9 9 0 17 3 19
12 6z m-15 -35 c0 -11 -19 -15 -25 -6 -3 5 1 10 9 10 9 0 16 -2 16 -4z m20
-20 c0 -2 -6 -9 -14 -15 -11 -9 -16 -9 -22 0 -4 8 -3 9 4 5 7 -4 12 -2 12 3 0
6 5 11 10 11 6 0 10 -2 10 -4z m3670 -146 c0 -5 -2 -10 -4 -10 -3 0 -8 5 -11
10 -3 6 -1 10 4 10 6 0 11 -4 11 -10z m-3532 -46 c-4 -3 -12 5 -18 18 -12 22
-12 22 6 6 10 -10 15 -20 12 -24z m-15 -31 c5 -26 4 -26 -9 -9 -7 10 -11 23
-8 27 8 14 11 11 17 -18z m57 -23 c0 -5 -5 -10 -11 -10 -5 0 -7 5 -4 10 3 6 8
10 11 10 2 0 4 -4 4 -10z m115 -80 c-3 -5 -12 -10 -18 -10 -7 0 -6 4 3 10 19
12 23 12 15 0z m-10 -25 c5 0 11 -9 14 -20 3 -19 3 -19 -16 -2 -11 9 -22 15
-25 12 -2 -3 -5 2 -5 10 0 8 5 11 11 7 6 -4 15 -7 21 -7z m37 -3 c-3 -10 -1
-13 6 -8 18 11 15 -3 -5 -22 -13 -13 -15 -13 -11 -2 3 8 2 22 -3 31 -5 10 -3
16 6 16 7 0 11 -7 7 -15z m58 -32 c0 -5 -7 -6 -17 -3 -12 5 -14 3 -8 -7 5 -9
4 -11 -4 -6 -6 4 -9 12 -6 17 8 12 35 12 35 -1z m3295 0 c3 -5 1 -10 -4 -10
-6 0 -11 5 -11 10 0 6 2 10 4 10 3 0 8 -4 11 -10z m4 -44 c-8 -17 -17 -22 -28
-18 -14 6 -14 7 2 10 9 2 17 10 17 18 0 8 4 14 10 14 6 0 5 -9 -1 -24z m-3182
-33 c-4 -3 -2 -12 4 -20 6 -7 9 -13 5 -13 -3 0 -9 -1 -13 -2 -3 -2 -8 7 -9 20
-2 12 1 22 8 22 6 0 8 -3 5 -7z m3093 -23 c0 -5 -2 -10 -4 -10 -3 0 -8 5 -11
10 -3 6 -1 10 4 10 6 0 11 -4 11 -10z m-135 -86 c-10 -7 -21 -11 -25 -9 -5 3
-10 -1 -13 -8 -7 -17 -67 -51 -67 -38 0 6 8 11 18 12 10 0 12 3 5 6 -7 2 -13
10 -13 16 0 5 2 8 5 5 3 -3 19 7 36 23 26 24 34 27 52 18 20 -11 20 -12 2 -25z
m-2492 -94 c3 -11 1 -18 -4 -14 -5 3 -9 12 -9 20 0 20 7 17 13 -6z m114 -5 c0
-8 -6 -16 -13 -19 -7 -3 -10 2 -7 15 6 22 20 26 20 4z m1083 -9 c0 -3 -4 -8
-10 -11 -5 -3 -10 -1 -10 4 0 6 5 11 10 11 6 0 10 -2 10 -4z m-1004 -25 c0
-11 -5 -17 -13 -14 -17 6 -17 20 0 26 6 3 12 6 12 6 1 1 1 -7 1 -18z m1018 4
c-4 -8 -2 -15 4 -15 6 0 12 6 15 13 3 9 8 9 18 -2 8 -8 9 -11 3 -8 -6 4 -19
-2 -29 -13 -10 -11 -22 -17 -26 -14 -5 3 -9 0 -9 -7 0 -7 -2 -10 -5 -7 -3 2 2
19 11 36 16 33 28 44 18 17z m-54 -5 c0 -5 -5 -10 -11 -10 -5 0 -7 5 -4 10 3
6 8 10 11 10 2 0 4 -4 4 -10z m155 0 c3 -5 2 -10 -4 -10 -5 0 -13 5 -16 10 -3
6 -2 10 4 10 5 0 13 -4 16 -10z m-218 -45 c0 -8 -4 -12 -9 -9 -5 3 -6 10 -3
15 9 13 12 11 12 -6z m73 9 c0 -8 -19 -13 -24 -6 -3 5 1 9 9 9 8 0 15 -2 15
-3z m286 -60 c1 -9 0 -13 -4 -10 -3 4 -7 14 -8 22 -1 9 0 13 4 10 3 -4 7 -14
8 -22z m285 -48 c8 4 10 3 5 -4 -11 -18 -24 -14 -36 11 -10 21 -10 21 4 3 8
-10 20 -15 27 -10z m-104 -8 c-3 -8 -6 -5 -6 6 -1 11 2 17 5 13 3 -3 4 -12 1
-19z"/>
<path d="M5756 1895 c-14 -13 -26 -27 -26 -31 0 -4 9 1 20 11 12 11 28 20 36
21 23 4 27 11 10 17 -8 3 -26 -5 -40 -18z"/>
<path d="M3567 5856 c-3 -8 0 -13 6 -12 15 2 22 19 9 24 -5 1 -12 -4 -15 -12z"/>
<path d="M4776 5807 c3 -10 9 -15 12 -12 3 3 0 11 -7 18 -10 9 -11 8 -5 -6z"/>
<path d="M3193 5772 c-1 -22 0 -24 9 -8 6 10 6 22 2 26 -5 5 -10 -3 -11 -18z"/>
<path d="M3180 5729 c0 -5 5 -7 10 -4 6 3 10 8 10 11 0 2 -4 4 -10 4 -5 0 -10
-5 -10 -11z"/>
<path d="M2716 5595 c-9 -26 -7 -32 5 -12 6 10 9 21 6 23 -2 3 -7 -2 -11 -11z"/>
<path d="M2756 5597 c3 -10 9 -15 12 -12 3 3 0 11 -7 18 -10 9 -11 8 -5 -6z"/>
<path d="M5141 5605 c-1 -16 13 -31 28 -30 18 0 23 32 5 32 -7 0 -11 -4 -8 -9
3 -4 1 -8 -5 -8 -5 0 -12 6 -14 13 -3 6 -6 8 -6 2z"/>
<path d="M5205 5600 c-3 -5 -1 -10 4 -10 6 0 11 5 11 10 0 6 -2 10 -4 10 -3 0
-8 -4 -11 -10z"/>
<path d="M2733 5570 c-3 -12 -12 -19 -22 -18 -11 2 -15 -4 -14 -20 2 -13 -1
-21 -6 -17 -5 3 -12 1 -15 -4 -12 -20 13 -21 27 -1 7 11 17 17 22 12 5 -4 5
-1 1 6 -4 7 -1 14 6 17 8 3 14 14 15 25 2 26 -7 26 -14 0z"/>
<path d="M5270 5570 c-13 -8 -12 -10 3 -10 9 0 17 5 17 10 0 12 -1 12 -20 0z"/>
<path d="M5315 5520 c3 -5 8 -10 11 -10 2 0 4 5 4 10 0 6 -5 10 -11 10 -5 0
-7 -4 -4 -10z"/>
<path d="M5431 5434 c0 -11 3 -14 6 -6 3 7 2 16 -1 19 -3 4 -6 -2 -5 -13z"/>
<path d="M2548 5393 c7 -3 16 -2 19 1 4 3 -2 6 -13 5 -11 0 -14 -3 -6 -6z"/>
<path d="M2526 5353 c-6 -14 -5 -15 5 -6 7 7 10 15 7 18 -3 3 -9 -2 -12 -12z"/>
<path d="M2470 5319 c0 -5 -4 -8 -9 -4 -5 3 -12 1 -15 -4 -4 -5 2 -8 11 -6 10
2 21 4 26 4 11 1 8 21 -3 21 -5 0 -10 -5 -10 -11z"/>
<path d="M2417 5235 c3 -8 9 -12 14 -9 12 7 11 11 -5 17 -10 4 -13 1 -9 -8z"/>
<path d="M2299 5163 c0 -4 -2 -18 -5 -30 -2 -13 1 -23 7 -23 5 0 8 4 4 9 -3 6
1 13 9 18 12 7 12 10 0 21 -8 7 -14 9 -15 5z"/>
<path d="M5695 5161 c-3 -5 -2 -12 3 -15 5 -3 9 1 9 9 0 17 -3 19 -12 6z"/>
<path d="M2166 5018 c3 -5 10 -6 15 -3 13 9 11 12 -6 12 -8 0 -12 -4 -9 -9z"/>
<path d="M5790 5016 c0 -2 8 -10 18 -17 15 -13 16 -12 3 4 -13 16 -21 21 -21
13z"/>
<path d="M2170 4960 c0 -5 5 -10 11 -10 5 0 7 5 4 10 -3 6 -8 10 -11 10 -2 0
-4 -4 -4 -10z"/>
<path d="M2080 4790 c-8 -10 -18 -16 -23 -13 -4 3 -3 -4 5 -16 12 -20 14 -20
25 -5 7 9 10 20 8 25 -3 4 0 9 7 11 8 3 8 7 2 11 -6 3 -16 -3 -24 -13z"/>
<path d="M5860 4806 c0 -2 8 -10 18 -17 15 -13 16 -12 3 4 -13 16 -21 21 -21
13z"/>
<path d="M5893 4733 c-3 -10 -8 -21 -10 -25 -2 -4 4 -5 13 -1 10 4 15 2 11 -3
-9 -15 7 -34 31 -39 12 -2 26 -6 31 -10 5 -3 13 -1 16 5 4 6 3 10 -2 9 -22 -4
-34 2 -27 14 6 9 5 9 -7 1 -11 -9 -17 -9 -27 2 -7 8 -9 14 -5 14 4 0 2 5 -4
11 -6 6 -9 18 -6 25 3 8 2 14 -1 14 -4 0 -9 -8 -13 -17z"/>
<path d="M5930 4699 c0 -5 5 -7 10 -4 6 3 10 8 10 11 0 2 -4 4 -10 4 -5 0 -10
-5 -10 -11z"/>
<path d="M2040 4650 c-8 -5 -12 -12 -9 -15 4 -3 12 1 19 10 14 17 11 19 -10 5z"/>
<path d="M5965 4540 c-3 -5 -2 -10 4 -10 5 0 13 5 16 10 3 6 2 10 -4 10 -5 0
-13 -4 -16 -10z"/>
<path d="M1979 4456 c8 -10 9 -16 1 -21 -5 -3 -10 -2 -10 3 0 5 -7 9 -15 9
-21 0 -19 -14 3 -19 27 -8 37 -7 35 3 -2 5 2 9 8 9 6 0 4 7 -5 15 -19 19 -32
20 -17 1z"/>
<path d="M1905 4400 c-3 -6 1 -7 9 -4 18 7 21 14 7 14 -6 0 -13 -4 -16 -10z"/>
<path d="M1926 4376 c3 -8 1 -17 -5 -21 -15 -8 -14 -25 1 -25 6 0 8 3 5 7 -4
3 0 14 8 23 14 15 14 18 1 23 -10 4 -13 1 -10 -7z"/>
<path d="M1896 4363 c-6 -14 -5 -15 5 -6 7 7 10 15 7 18 -3 3 -9 -2 -12 -12z"/>
<path d="M5964 4365 c3 -22 13 -27 19 -11 3 8 0 17 -8 19 -7 3 -12 0 -11 -8z"/>
<path d="M5985 4331 c-8 -22 24 -44 42 -30 7 6 13 18 13 26 0 8 4 12 9 8 5 -3
12 -2 15 3 3 5 -2 9 -10 9 -9 0 -20 -11 -25 -24 -5 -12 -11 -23 -15 -23 -3 0
-4 11 -2 23 5 27 -17 33 -27 8z"/>
<path d="M1993 3111 c-1 -11 9 -27 23 -36 14 -9 22 -21 18 -27 -4 -7 -3 -8 5
-4 8 5 9 12 2 19 -5 7 -10 15 -10 20 -1 11 -25 47 -31 47 -3 0 -6 -9 -7 -19z
m27 -16 c11 -13 10 -14 -4 -9 -9 3 -16 10 -16 15 0 13 6 11 20 -6z"/>
<path d="M1915 3111 c-3 -5 -2 -12 3 -15 5 -3 9 1 9 9 0 17 -3 19 -12 6z"/>
<path d="M2020 3020 c0 -5 7 -7 15 -4 8 4 15 8 15 10 0 2 -7 4 -15 4 -8 0 -15
-4 -15 -10z"/>
<path d="M2030 2965 c-7 -9 -8 -15 -2 -15 5 0 12 7 16 15 3 8 4 15 2 15 -2 0
-9 -7 -16 -15z"/>
<path d="M2049 2898 c0 -2 -2 -11 -4 -21 -3 -15 -1 -16 11 -6 7 6 11 15 8 20
-5 9 -13 12 -15 7z"/>
<path d="M2036 2773 c-6 -14 -5 -15 5 -6 7 7 10 15 7 18 -3 3 -9 -2 -12 -12z"/>
<path d="M2146 2682 c-3 -5 1 -9 9 -9 8 0 15 4 15 9 0 4 -4 8 -9 8 -6 0 -12
-4 -15 -8z"/>
<path d="M2166 2602 c-3 -5 1 -9 9 -9 8 0 12 4 9 9 -3 4 -7 8 -9 8 -2 0 -6 -4
-9 -8z"/>
<path d="M5993 2515 c0 -8 4 -12 9 -9 5 3 6 10 3 15 -9 13 -12 11 -12 -6z"/>
<path d="M2276 2453 c-6 -14 -5 -15 5 -6 7 7 10 15 7 18 -3 3 -9 -2 -12 -12z"/>
<path d="M2330 2408 c0 -7 4 -19 9 -26 6 -11 10 -10 19 0 8 11 6 17 -9 26 -15
10 -19 10 -19 0z"/>
<path d="M2382 2325 c-14 -30 -12 -31 10 -5 10 10 14 22 9 24 -4 3 -13 -6 -19
-19z"/>
<path d="M2425 2291 c-3 -5 -2 -12 3 -15 5 -3 9 1 9 9 0 17 -3 19 -12 6z"/>
<path d="M2450 2200 c0 -5 5 -10 11 -10 5 0 7 5 4 10 -3 6 -8 10 -11 10 -2 0
-4 -4 -4 -10z"/>
<path d="M2480 2186 c0 -2 7 -7 16 -10 8 -3 12 -2 9 4 -6 10 -25 14 -25 6z"/>
<path d="M6076 2121 c-3 -5 0 -11 7 -14 8 -3 14 1 14 9 0 16 -13 19 -21 5z"/>
<path d="M2576 2087 c3 -10 9 -15 12 -12 3 3 0 11 -7 18 -10 9 -11 8 -5 -6z"/>
<path d="M2741 2051 c-9 -6 -10 -11 -2 -15 6 -4 11 -2 11 4 0 7 6 10 13 7 6
-2 11 -9 10 -15 -2 -7 4 -9 14 -5 14 6 14 8 -3 20 -21 15 -24 16 -43 4z"/>
<path d="M2986 1883 c-6 -14 -5 -15 5 -6 7 7 10 15 7 18 -3 3 -9 -2 -12 -12z"/>
<path d="M2975 1851 c-3 -5 -2 -12 3 -15 5 -3 9 1 9 9 0 17 -3 19 -12 6z"/>
<path d="M5660 1810 c-8 -5 -12 -11 -10 -14 3 -2 14 2 24 10 22 15 10 19 -14
4z"/>
<path d="M3414 1749 c-8 -14 14 -19 25 -6 8 10 7 14 -5 14 -8 0 -17 -4 -20 -8z"/>
<path d="M5291 1647 c-8 -10 -7 -14 4 -14 8 0 15 6 15 14 0 7 -2 13 -4 13 -2
0 -9 -6 -15 -13z"/>
<path d="M4870 1625 c-11 -13 -10 -14 4 -9 9 3 16 10 16 15 0 13 -6 11 -20 -6z"/>
<path d="M5166 1598 c3 -5 10 -6 15 -3 13 9 11 12 -6 12 -8 0 -12 -4 -9 -9z"/>
</g>
</svg>
